<?xml version="1.0" standalone="no"?>
<!DOCTYPE svg PUBLIC "-//W3C//DTD SVG 20010904//EN"
 "http://www.w3.org/TR/2001/REC-SVG-20010904/DTD/svg10.dtd">
<svg version="1.0" xmlns="http://www.w3.org/2000/svg"
 width="640.000000pt" height="640.000000pt" viewBox="0 0 640.000000 640.000000"
 preserveAspectRatio="xMidYMid meet">
<metadata>
Created by potrace 1.11, written by Peter Selinger 2001-2013
</metadata>
<g transform="translate(0.000000,640.000000) scale(0.100000,-0.100000)"
fill="#000000" stroke="none">
<path d="M0 3200 l0 -3200 3200 0 3200 0 0 3200 0 3200 -3200 0 -3200 0 0
-3200z m2193 483 c24 -32 47 -63 50 -70 15 -24 -142 -94 -243 -108 -163 -22
-214 -52 -226 -135 l-7 -45 33 28 c58 49 110 70 175 71 148 1 247 -117 249
-299 1 -70 -3 -88 -30 -146 -32 -67 -81 -116 -154 -155 -54 -29 -199 -27 -262
4 -137 68 -208 212 -208 423 0 165 35 258 126 338 55 49 122 75 229 91 94 14
174 33 201 48 10 6 20 12 21 12 1 0 22 -26 46 -57z m578 -280 c105 -54 147
-168 97 -263 -47 -90 -198 -129 -305 -80 -24 10 -43 16 -43 12 0 -23 45 -74
81 -93 35 -17 55 -20 118 -17 42 3 83 8 92 12 12 5 27 -8 57 -48 l42 -55 -33
-20 c-53 -33 -161 -53 -253 -49 -188 10 -308 134 -306 317 0 79 25 142 78 201
92 102 262 139 375 83z m724 3 c144 -61 206 -287 123 -453 -64 -128 -231 -190
-351 -129 l-46 23 -3 -136 -3 -136 -97 -3 -98 -3 0 416 0 415 58 0 59 0 18
-40 c10 -22 21 -40 25 -40 3 0 17 12 31 26 27 29 88 63 134 75 36 9 109 2 150
-15z m682 8 c88 -29 143 -104 143 -194 0 -82 -46 -144 -126 -170 -49 -17 -174
-8 -205 13 -31 22 -38 21 -32 -3 8 -32 78 -88 118 -96 37 -7 147 -1 175 9 10
4 28 -11 53 -44 46 -60 42 -68 -41 -100 -80 -30 -210 -37 -287 -14 -141 41
-225 153 -225 301 0 209 225 365 427 298z m-3108 -189 c0 -123 4 -184 13 -203
17 -36 73 -51 118 -32 52 21 60 56 60 245 l0 165 101 0 101 0 -4 -317 c-3
-297 -5 -321 -24 -363 -74 -162 -305 -219 -496 -124 -26 13 -49 27 -52 32 -4
7 30 68 54 95 3 4 26 1 49 -8 54 -19 161 -19 205 -1 46 19 76 61 76 106 l0 37
-56 -29 c-128 -64 -273 -19 -328 102 -18 40 -21 68 -24 258 l-3 212 105 0 105
0 0 -175z m3677 75 c37 -55 70 -100 73 -100 3 0 35 45 71 100 l65 100 117 0
118 0 -2 -292 -3 -293 -97 -3 -98 -3 0 198 0 197 -31 -50 c-17 -27 -47 -68
-66 -91 -31 -38 -39 -43 -77 -43 -49 0 -54 4 -120 105 l-46 70 0 -192 0 -193
-100 0 -100 0 0 295 0 295 115 0 115 0 66 -100z m737 -300 c18 -14 29 -37 37
-73 10 -52 9 -62 -12 -120 -14 -36 -57 -59 -97 -51 -35 7 -96 64 -109 104 -14
39 16 101 64 134 46 31 82 33 117 6z"/>
<path d="M1854 3251 c-32 -20 -62 -57 -81 -102 -15 -35 11 -93 60 -136 96 -84
191 -28 190 113 0 64 -16 103 -52 131 -24 18 -82 15 -117 -6z"/>
<path d="M2583 3249 c-41 -20 -58 -42 -47 -60 14 -24 82 -44 131 -40 41 4 56
68 23 101 -25 25 -54 25 -107 -1z"/>
<path d="M3324 3250 c-61 -13 -128 -88 -126 -142 1 -56 72 -137 131 -151 35
-9 87 17 105 52 10 18 17 58 17 95 2 105 -48 163 -127 146z"/>
<path d="M4025 3251 c-72 -32 -77 -55 -17 -85 49 -25 101 -24 124 3 24 31 23
47 -7 76 -29 30 -47 31 -100 6z"/>
</g>
</svg>
